<svg width="180" height="180" viewBox="0 0 180 180" fill="none" xmlns="http://www.w3.org/2000/svg">
<g clip-path="url(#clip0_1799_21)">
<rect width="180" height="180" rx="18" fill="#E7933E"/>
<path d="M152.583 139H93.3025L110.463 41.5H140.103L127.311 114.04H156.951L152.583 139ZM88.6225 138.532L22.4785 131.512H89.8705L88.6225 138.532ZM93.9265 108.424L27.7825 101.404H95.1745L93.9265 108.424ZM96.5785 93.448L30.4345 86.428H97.8265L96.5785 93.448ZM99.2305 78.472L33.0865 71.452H100.479L99.2305 78.472ZM101.883 63.496L35.7385 56.476H102.975L101.883 63.496ZM91.2745 123.4L25.1305 116.38H92.5225L91.2745 123.4ZM104.379 48.52L38.3905 41.5H105.627L104.379 48.52Z" fill="white"/>
</g>
<defs>
<clipPath id="clip0_1799_21">
<rect width="180" height="180" rx="18" fill="white"/>
</clipPath>
</defs>
</svg>
